<svg xmlns="http://www.w3.org/2000/svg" width="512" height="512" viewBox="-46 194 512 512" enable-background="new -46 194 512 512"><path fill="#244AA5" d="M-46 194h512v512h-512z"/><path fill="#D0A650" d="M134.987 435.575s1.33-.896 1.816-1.015c.486-.119 2.205-.657 2.205-.657s1.103-.568 1.686-.568c.616 0 1.816.657 2.205 1.225.357.567 2.302 1.553 2.302 1.553s1.33.448 1.589 0 .843-.776 1.459-.776.713-.567.713-1.016c0-.448.259-1.015.713-1.553.486-.567 1.459-.896 1.459-.896s1.329-.567 1.459-1.344c.129-.776 1.459-1.344 2.205-1.463.713-.12 0-.448 1.946-.239 1.945.239 2.205-.448 2.302-1.015.13-.568 0-1.135 1.232-1.016 1.232.12 1.816.12 1.816-.567 0-.657 1.102-1.016-.843-1.553-1.946-.567-1.815-.119-1.946-1.015-.129-.896 0-.777-1.329-.896-1.33-.119-.616-.776-.713-1.463-.13-.657-.487-1.015-.713-1.463-.26-.449-.973-.449-.973-1.105 0-.657-.13-1.015-.844-1.015s-.973 0-.973-.657.13-1.225.843-1.225 1.103-.568.973-1.225c-.13-.657-.13-2.121-.13-2.121l.973-1.135s2.918-2.359 3.178-2.808c.259-.448 1.232-.776 1.687.119.486.896.713 1.135 1.102 1.553.357.448 1.459.12 1.686-.328.26-.448.357-2.091 1.006-2.987.648-.866 1.102-1.314 1.264-2.031.163-.717.486-1.314 1.265-1.314s1.265-1.015 1.265-1.613c0-.597.324-1.165 1.264-1.314.941-.149 1.427-.717 1.751.149.324.866.648.866 1.264 1.165.649.299 1.589.717 2.043.299.486-.448.714-1.165 1.427-.717.68.448 1.167 0 1.329-.866.163-.866.324-2.031.324-2.031s.162-.598 1.265-.598.324-.716.94-1.165c.648-.448.648-.866 1.427-.598.777.299 2.042-.358 1.426-1.075-.649-.717-2.042-1.882-1.265-2.778.778-.866 1.103-2.33.324-2.479s-1.913.149-2.043-.717c-.162-.866-.486-1.464.486-1.613.94-.149 2.529-.149 3.016-.598.486-.448 2.043-.717 2.043-2.03 0-1.314.486-1.463.648-2.181.163-.717.163-2.24-.486-2.957-.649-.717-1.589-1.762-1.751-2.18-.163-.448-.778-1.165-1.751-1.464-.94-.298-1.751-.448-1.751-1.165 0-.717.648.149.648-1.762 0-1.882-1.265-2.181-1.265-2.181l-1.913-1.164s-3.373-.896-4.28-.896c-.908 0-1.945-.956-.908-1.553 1.038-.597 1.297-1.672.908-2.508-.389-.837-.649-1.434-2.075-1.792-1.427-.358-1.816-.717-1.167-1.553s.778-1.434 1.557-.836c.778.597 2.075.836 3.113.358s1.427-.836 1.946-.358c.519.478 1.167.956 1.945.239.778-.716 2.205-.836 2.854-.478.648.358 2.205.239 2.723 0 .519-.239 1.557-1.075 1.557-1.553 0-.479.648-1.314 1.297-1.673.648-.358 1.427-1.553 2.075-1.553.649 0 .908-.717.908-1.195 0-.478.519-1.433.648-1.792s1.426-.866 2.334-.12c.908.717 2.075.956 2.075.956s1.297.239 1.946 0c.648-.239 1.557-.478 2.464.12l2.205.597s.259-.956.259-1.433c0-.479.26-1.314-.259-1.673s-1.167-.836-.129-1.553c1.037-.717 1.037-.598 2.075-.598 1.038 0 1.687.12 2.465.12s2.075.717 2.075 1.434c0 .716.519 1.194 1.167 1.553s1.427.717 1.167 1.314c-.259.597-.259 1.075.519.956.778-.12 1.038.358 1.038.956s.26.956 1.038 1.195 1.167.717 1.167 1.314-.13.956.129 1.553c.26.597 1.038 1.553 1.038 1.553s1.426 1.673-.389.837c-1.816-.837-2.205-1.195-2.854-1.076-.648.12-1.037.478-1.037.478s-.908.239-1.557.239-1.297 1.314-.259 1.553c1.038.239 1.427.478 1.427 1.314s-.389.598-.908 1.195c-.519.597-.908.239-1.816.239s-1.167.717-1.167 1.434.389.598.778 1.195c.389.597 1.038.717 1.686.12s1.167-.956 1.557.119c.389 1.075.908 1.075 1.686 1.075s1.038 0 1.686-.358 1.427 0 1.557.956c.129.956.778 1.076 1.427 1.434.648.358 1.038.597 1.167 1.194.13.597.519.837 1.167.478.649-.358 1.686-.597 2.076-.119.389.479 1.038 1.434 1.038 1.434l.129 1.195 2.464.836s.26.597.26 1.075.389.717 1.038.597c.648-.12 1.815 0 1.815 0s.909-.358.909-1.075c0-.716.389-.956 1.037-.956.649 0 2.076.479 2.464-.239.39-.717 1.557-.956 2.464-.597.908.358 3.243 1.314 3.243 1.314s-.259.119.519 1.314c.778 1.194 2.205 1.194 2.205 1.194s.13 1.076.389 1.553c.26.478 1.427.717 2.076.239.648-.478 1.557-1.075 2.335-1.075s1.297 0 1.297-.478-.778-.836-.778-1.553.778-.717.908-1.433c.129-.717.908 0 1.427.358s1.167.956 1.167 1.434 1.038 2.15 1.686 2.389c.649.239 2.335.358 2.854-.239s1.815-.836 1.686.597c-.13 1.434-.389 1.554.519 2.031.908.478 1.037 2.15.259 2.628-.778.478-1.038.597-1.038 1.433 0 .836-.259 1.792.389 2.27.649.478 1.038.836 1.038 1.314 0 .478.778 2.628.778 2.628s.389 2.15.259 2.628c-.13.478-.389 1.314.778 1.194 1.168-.12 1.427-.12 1.427.837 0 .955.389 1.313-.259 1.672-.649.358-1.038 1.553-.39 1.792.649.239 1.168.597 1.297 1.075.13.478 1.167 1.314 1.816.837.648-.479.778-.717 1.297-.837.519-.119.908-.478.389-1.075s-.649-1.195-.13-1.554c.519-.358.778-1.553.778-1.553s.778-1.075 1.686 0c.909 1.075 1.038.717 1.686.717.649 0 .909.597.909 1.194 0 .598 1.296.479 1.296 1.434l.26 3.226s0 1.314.778 1.792.649.597.259 1.195c-.389.597-.259 1.553-.259 2.031 0 .478.259.717-.389 1.194-.649.478-.908 1.075-.519 1.792.389.717.26 1.194 1.297 2.031 1.037.836.908 1.195.908 1.792s1.038 1.434 1.038 2.031c0 .597.778 1.314 1.427 1.433.648.12 1.426 1.195 1.426 1.792l.13 2.15s-.13.359.648.359 1.297.836 1.557-.12 1.038-1.076 1.556-1.314c.519-.239 1.557-.716 2.076-.358.519.358 1.167.358 1.686.358.519 0 2.983.12 2.983.12s.648-.12 1.038.836c.389.956 1.556 2.031.908 2.509-.648.478-.648 1.434.129 1.434.778 0 1.557 0 1.557.597s.13 1.075.778.717 1.038-.478 1.297 0c.26.478.778.478 1.427.836.648.359.908.12 1.297-.358.389-.478 1.946-.956 1.946-.956s2.075-.478 2.853-.239l1.816.717s.518 1.195.259 1.912c-.259.717-.519.597-.259 1.673.259 1.075-.26 1.194-.779 1.075s-1.038-.119-1.038.836c0 .956-.519 1.195-.519 2.031 0 .836 0 .717-.519 1.075s-.648.956.13 1.076.519.956.519 1.433c0 .478-.13 1.554-.13 1.554s.13.597-.778.597-1.686-.12-1.815.478c-.13.597-1.167 1.553-.259 2.151.908.597.648.955.129 1.194s-.908 1.434.13 1.792c1.037.358.908.717.26 1.194-.649.478-1.946.836-1.946 1.554 0 .717-.259.717-1.038.836s-1.167 1.074-.26 2.27 1.167.955 1.816.955l.648-.955s2.205.119 2.854.119 1.557 0 2.076-.357c.519-.359 1.945-.957 1.945.119 0 1.074.26.955.908 1.434.648.477.779.119 1.297.836.519.717.648.119 1.038-.717.389-.836 1.167-1.672 1.815-.717.649.955.649.717 1.427.717s1.038.357 1.038.955.778.598 1.686.479c.908-.119 1.038.479 1.427 1.074.389.598.519.479 1.037.479.519 0 1.038 0 1.427-.479.389-.477.908-1.074 1.427-.357s1.556.598 1.815-.238c.26-.838 1.427-1.555 2.076-.598.648.955 1.167.955 1.815 1.074.649.119 1.557.119 1.946.717s1.686 1.553.778 2.27c-.908.717-1.946 1.674-1.167 1.912.778.24 1.297.479 1.816 1.076.519.596 2.205.836 2.983.955s1.426.238 2.334-.479c.908-.717 1.816-.717 1.686.24-.129.955.389 2.029.389 2.029s.648 1.553.648 2.152c0 .596-.129.715 1.038 1.432s1.038 1.195 1.945.479 1.167-1.074 1.167-1.672v-1.912s1.297-.238 1.816-.598c.519-.357 2.594-1.434 3.113-.955s1.167.359 1.686.119c.519-.238 1.557-.238 2.076-.238.519 0 1.427.119 2.464-.717s1.038-.598 1.686 0c.648.596.648 1.314.259 1.791-.389.479 0 1.553.908 1.553s1.167.479 1.167 1.076.13 1.434.259 1.91c.13.479.13.719 1.557 1.076 1.427.359 1.167 1.195 1.427 1.793.26.596.26 1.074-.519 1.074s-1.038.359-1.167.955c-.129.598-1.297.838-1.297.838l-1.167-.24s-.778 0-1.167.479c-.389.477-1.167 1.434-.649 2.27.519.836.519 1.314 0 1.674-.518.357-.777 2.148-1.296 1.791-.519-.359-1.167.119-1.686.357-.519.24-.39 1.912.648 2.51 1.038.598 1.297 1.434 1.297 1.434l1.167 1.791s-.389.359-.648.957-1.038 1.791-.259 2.031c.777.238.389 1.553-.39 1.553s-1.686-.359-1.815.598c-.13.955-.519.717-1.297.596-.778-.119-2.724-.596-3.243.359s-.648 1.314-1.557 1.195c-.908-.119-.519 1.434-.259 2.029.259.598 1.167 1.436 1.167 1.436s.778.596.778 1.791-.519 1.076-1.038.238c-.519-.836-1.557-.717-1.686.24-.13.955-.26 2.389-1.168 2.389-.908 0-1.297.238-1.686.717s-1.037 1.314-1.037 1.791c0 .479-.13.957-.778 1.076-.649.119-.778 1.434-.778 1.434s-1.557.238-1.687.836c-.13.598.129 1.553-1.167 1.674-1.297.119-2.075.955-2.464 1.553-.39.598-.519 1.074 0 1.672.518.598.908 2.51 1.556 2.867.648.357 1.167.479 1.038 1.434-.13.955-.908 1.672.129 1.672 1.038 0 1.687.24 1.297 1.076s-.389.955-1.167 1.314c-.778.357-1.167.357-1.167 1.313 0 .957.259.957-.39 1.314-.648.359-.648.838-.648 1.553 0 .717-.259.479-1.038 1.314-.778.838-1.816.838-2.464.598-.648-.238-.778-.238-.908-.955s-1.297-.717-1.946-.598-1.557.836-1.557.836-1.167.717-.648 1.314c.519.598.26 1.553-.648 1.434s-2.983.955-3.632-.119c-.648-1.076-2.464-1.793-2.724-.359-.259 1.434.778 1.314.649 2.748-.13 1.434-.389 1.434-.908 1.912s-.519.836-.648 1.434c-.13.598-.259 1.912.648 2.389.908.479 1.297 1.793 1.297 2.51s0 1.434.908 1.434 1.686-.121 1.816-.957c.129-.836 1.946-1.313 2.075.359.13 1.672.13 2.508.778 3.225.649.719 1.167 1.674 1.686 2.031.519.359 1.395 3.405 1.395 3.405-1.265.27-1.589 1.912-2.399 2.24-.454.18-.94.029-1.362.328-.324.238-.324.688-.778.896-.94.418-.778-1.045-1.913-.508-1.038.479-1.135 1.672-2.627 1.164-.778-.268-1.264-3.314-1.492-4.031-.129-.419-.94-1.673-1.199-2.062-.875-1.314-2.627 0-3.178-.387-.875-.6-.487-1.613-1.816-1.732-2.691-.18-.778 1.641-1.913 2.061-2.172.775-2.172-2.031-3.794-.748-.616.479.973.777.584 1.613-.325.688-1.914 1.733-1.816 2.54.13 1.104 1.33 1.432 1.686 2.359.973 2.447-.648 4.15-3.081 2.238-1.361-1.074-1.621-3.076-3.729-2.926-.486.029-.648.537-1.135.596-.486.031-.875-.447-1.395-.297-.777.268-.097.805-.259 1.254 0 0-1.038.865-1.2 1.105-.584.775-.39 1.463-1.232 2.09-.713.537-1.265.209-2.043 1.045-.811.867-.875 2.15-1.913 2.988-.519.418-.875-1.256-1.524-.15-.097.15-.194.299-.259.447-.163.33-.195.479-.033.838 1.362 2.627-1.491 3.613-2.366 5.465-.39.775.68 1.494.259 2.09-.292.449-1.556 1.674-1.653 1.941-.097.27-.228.867-.454 1.076-.227.238-1.005.119-1.07.479-.064.418.811.746 1.038 1.016.292.328-.129.775-.032.865 1.459 1.463.583 1.016 1.33 2.299.097.18.551-.148.713.33.162.447-.357.418-.163.926.033.148 1.07 1.492 1.07 1.523.065.447-1.978 1.373-2.432 1.373-1.232.029 1.07-2.539-.941-2.539-.875 0-.94 2.002-1.167 2.211-.097.09-.908 0-1.103 0-1.297 0-2.14 1.611-2.659 1.762-.324.119-1.038-.18-1.589-.09-.519.09-1.135.598-1.621.598-.324 0-.487-.209-.746-.359-.583-.328-1.654-.477-2.302-.686-.356-.119-1.038.447-1.265.299-.421-.27.292-1.016-.681-1.553-.13-.061-.844-1.793-.811-1.883.324-1.135.68-2.359.519-3.555-.195-1.225-2.108-2.27-2.626-3.256-.39-.746-.746-2.717-1.492-3.225-.811-.537-1.557-1.582-1.978-2.389-.13-.238.259-.658-.033-1.076-.324-.447-.94-.627-1.102-1.225-.13-.477 0-2.031-.552-2.359-.616-.357-4.572-.836-5.544-.926-.519-.029-.908-.029-1.297-.418-.162-.148-.421-.777-.551-.777-.39-.029-.843.18-1.232.209-.292.031-.778-.178-1.038 0-1.265.867-1.589 1.973-2.789 2.898-1.232.926-2.594.896-3.826 1.971-.778.688-1.297 2.33-2.076 3.105-.324.33-.843 0-.973.15-.648.807-1.556 1.283-2.205 2.031-.129.148-.097.447-.259.566l-1.394.359c-.357.059-1.038-.029-1.33.059-.648.209-.616.896-2.821 1.344-.162.031-.454.18-.583.27l-.713.627c-.162.119-.649-.09-.94-.059-.551.09-.875.566-1.395.627-1.167.148-3.048-.537-3.956-.18-.551.209-2.075 1.912-2.626 2.09-.357.121-.616-.029-1.006-.178-.194.238-.648 2.09-.811 2.508 0 .029-2.497 2.121-2.691 2.359-.324.359-.454.746-.843 1.135-.259.27-.681.508-1.103.508-.519 0-1.296-.389-1.783-.477-.94-.15-3.762-.27-4.604-.09-.875.178-.616 2.688-2.789 2.926-1.265.15-2.432.389-3.729.508-.13 0-.908-.537-1.686-.328-.292.09-1.232 1.045-1.232 1.344v.539l.227.447c-.486.568-1.589 1.463-1.945 2.121-.097.178-.227.387-.389.508-.292.209-1.783.775-1.913 1.045-.357.895 1.038 1.732.908 2.09-.389 1.164-1.946 2.27-2.432 3.346-.194.447.519 1.941.486 2.449-.162 1.404-.648 3.195-.583 4.568 0 .27.194 1.674.292 1.822.162.27.519.418.746.658.227.238 1.946 3.584 2.011 3.941.324 2.479-3.275 1.613-1.2 4.092.324.389.583.807.94 1.135.454.447 3.113 2.391 3.146 2.6.065.357-2.14.715-2.529 1.104-1.037 1.016-1.913 2.898-2.918 3.943-.616.656-1.167-.061-1.978 1.463-.292.568 0 1.852-.357 2.211-.519.537-.94-.18-1.459.059-.227.09-.356.748-.583.926-.584.508-5.772 3.256-6.258 3.018-.26-.119-.552-.986-.584-1.254-.065-.299-.39-.957-.648-1.166-1.33-1.135-3.373-1.344-4.669.031-.324.357-.357.895-.778 1.254-.713.598-1.524 1.135-2.205 1.732-.13.119-.519.566-.681.537-.519-.061-1.783-1.494-2.107-1.881-.584-.688-2.27-2.33-2.433-3.107 0-2.658-2.075-5.436-2.95-8.033l1.297.029c1.459-.986 1.038-3.404 3.664-2.449.325-.447.292-.926.908-1.254.227-.119.648-.238.778-.449.875-1.344 1.914-6.48 1.006-7.795-.811-1.193-1.654-1.135-2.302-3.105-.195-.537.162-1.164 0-1.762-.13-.479-1.006-3.316-1.135-3.525-.162-.238-.713-.537-.746-.686-.032-.24-.227-3.316-.129-3.555-.875-2.389-3.827-3.912-3.988-4.182l-1.103-1.941c-.454-.746-.454-1.135-.713-1.852-.098-.328-.584-.598-.616-.955-.065-.629 1.718-1.941 1.654-3.047-.033-.357-1.135-1.434-.908-2.031.227-.627 1.362-2.031 1.33-2.717-.065-.928-1.784-2.928-2.01-3.914-.097-.477.681-.865.486-1.193-.227-.42-2.042-2.063-2.334-2.539-.227-.359.681-.836.032-1.494-.583-.598-.097-.389-.259-.895-.194-.568-.843-1.076-1.102-1.674-.228-.508-1.784-6.123-1.751-6.451-.259-.389-.713-.717-.94-1.105-.227-.387-.324-1.135-.519-1.434-.032-.029-1.751-.537-2.075-1.045-.259-.418-.325-1.791-.778-2.479-.227-.328-.584-.27-.843-.508-.227-.18-.194-.508-.357-.717-.519-.717-1.556-.061-2.27-2.688-.94-.657-1.816-1.226-2.626-2.032-.162-.148-.259-.328-.454-.418-.648-.268-1.622-.357-2.172-.836-.325 0-2.043-.059-2.238-.18-.195-.119-.389-.865-.519-.895-.908-.18-2.4-.09-3.178-.748-.616-.537-.746-3.135-1.848-2.777-.13-.059-.292-.119-.455-.09-.713-.926-3.178-1.045-4.183-1.643-.292-.178-1.232-.029-1.232-.299.227-.508.162-.926.194-1.434-.551-.537-.908-1.164-1.297-1.553-.94-.209-.583-.299-1.167-.656-1.621-.119-1.783.148-2.821 1.105-.259.238-.778.299-1.102.477-.552.299-.713 1.285-1.492.838-.259-.15-.421-.389-.616-.568-.454-.389-.713-.18-.94-.896-1.33-.717-4.994 1.762-5.87.029-.616-.328-1.07.09-1.589-.447-.259-.27.714-3.256-1.945-4.48.616-.479 1.265-.807 1.848-1.254.163-.328-.032-.836-.032-1.164 0-.508.325-1.494.228-1.852-.098-.359-.487-.658-.616-1.076-.162-.418.032-.955-.195-1.404-.162-.119-.648-.418-.843-.418-.681-.566-1.427-.926-1.979-1.613-.129-.148-.227-.418-.389-.537-.486-.357-2.075-.836-2.01-1.582.032-.24.356-.27.454-.508.098-.299.033-.688.26-.957.746-1.014 2.399-.566 2.14-2.447-.129-.838-.713-1.555-.875-2.449-.292-.209-.324-.568-.583-.777-1.621-.148-1.395-1.822-1.979-2.211-1.718-1.164-3.048-.447-1.134-2.746.259-.748-1.654-1.941-2.043-2.361-.681-.656-.357-2.029-.616-2.746-.129-.359-1.264-.986-1.621-1.494-.097-.148-.389-.926-.551-1.016l.032-.238c.357-.27.163-.807.065-1.164-.228-.211-.713-.15-.876-.299-1.557-1.404-3.437-2.031-5.48-2.838-.551-.209-.389-.658-.843-.867-.389-.178-3.146-1.402-3.34-1.344-.324-.09-.551-1.314-.778-1.701-.194-.359-.973-1.016-.973-1.047.065-1.135-.648-1.283-1.524-1.881.065-.148-.097-.508-.097-.688 0-.148.583-2.121.681-2.389.163-.418.713-.807.616-1.285-.13-.746-.227-1.91-.486-2.568-.876-2.328-1.913-2.029-1.362-5.076.129-.627-.097-.986.389-1.553-.065-.031.228-.328.26-.389.292-.27 1.103-.717 1.264-.926.487-.658.778-2.15 1.395-2.629.454-.359 1.751-1.045 1.979-1.344.194-.238.486-.986.324-1.283-.454-.27-.908-.15-1.362-.211-.162-.029-.746-.447-1.2-.537-.129-.148-.357-.328-.357-.537l-.194-.18c-.519-.059-1.102-.389-1.557-.537-.583-.238-1.394-.27-1.945-.598-1.038-.598-2.205-2.24-3.21-2.479-1.362-.299-2.237.119-3.534.18-.843.059-.843-.449-1.524-.658-.908-.268-.227.479-2.303-.18-.259-.207.13-.926.162-1.193-.324-.09-.713.09-1.102 0-1.719-.418-1.07-1.973-1.524-2.988-.195-.238-.908-.178-1.232-.207-.097-.031-.129-.18-.097-.24l.162-.119c.292-.447-.746-1.582-.713-1.732.065-.357 2.173-.688 2.464-.717.098-.268-.194-.508-.227-.775-.064-.598.325-1.375.519-1.912l-.064-.18c-.584-.328-.778-.807-1.297-1.195.032-.268.389-.447.454-.717 1.005-2.777 2.562-.566 3.924-3.135.129-.24.518-.867.648-1.285l.259-.06c.259.06.616.269.875.18.194-.27.616-.358.94-.448l.487.119c2.529-.538 1.945-1.463 3.405-2.509.389-.268 1.524-.388 2.043-.567.551.239 1.33 1.105 2.367 1.493.746.299 3.307.836 3.729 1.075.551.299.648 1.016 1.135 1.284 1.459.776.616-.538 2.011-.269 1.427.299 2.594 1.462 3.923 2.031.227.09.778-.029 1.038-.09.422-.09 2.692-.508 2.918-.418.259.09.648.328.908.389.325.059.584-.627.811-.598.973.148 1.005.537 2.302.418.064 0 .681-3.643 1.297-3.823.357-.089 1.33.866 1.622.926.486.119-.032-.747-.065-.807-.129-.299-.811-2.539-.778-2.748.033-.119.649.18.94.089.713-.239 1.686-.417 2.205-.985.065-.06 1.167-1.642 1.2-1.702.064-.269-.292-.896-.13-1.105.163-.18.778-.418 1.07-.717.421-.418.486-1.135 1.07-1.434 2.303-.208 3.113-2.001 5.188-2.24.13 0 .584-.089.681-.06l.421.687c.129.179 1.524 1.015 1.751.955.195-.029.292-.358.486-.417.422.06 1.589-.657 1.719-1.016.032-.06-.259-.418-.13-.657.097-.179 1.557-1.254 1.784-1.374.519 0 1.07-.119 1.556.06.292.12.325.567.649.627.357.03 1.005-.12 1.265-.06l.778-.567.058.064z"/><path fill="#fff" d="M245.699 265.959l18.057 55.573-47.273-34.345h58.432l-47.273 34.345z"/><path fill="#fff" d="M316.011 278.358l18.058 55.573-47.273-34.346h58.432l-47.273 34.346z"/><path fill="#fff" d="M383.104 302.777l18.057 55.573-47.274-34.346h58.434l-47.273 34.346z"/><path fill="#fff" d="M174.301 265.959l-18.057 55.573 47.273-34.345h-58.433l47.273 34.345z"/><path fill="#fff" d="M103.988 278.358l-18.057 55.573 47.273-34.346h-58.433l47.273 34.346z"/><path fill="#fff" d="M36.895 302.777l-18.057 55.573 47.274-34.346h-58.433l47.273 34.346z"/></svg>